<svg width="50" height="50" viewBox="0 0 50 50" fill="none" xmlns="http://www.w3.org/2000/svg">
<circle cx="25" cy="25" r="25" fill="#449E48"/>
<circle cx="25" cy="25" r="24" fill="white"/>
<circle cx="25" cy="25" r="23" fill="#449E48"/>
<circle cx="25" cy="25" r="23.75" stroke="#50CD56" stroke-width="0.5"/>
<path d="M20.9007 11.6688C20.8017 11.6679 20.7027 11.6689 20.6037 11.6719C17.6783 11.7616 16.1742 13.5411 16.2443 15.0351C16.2965 16.1438 16.3859 17.2517 16.5047 18.3593C17.6234 18.1152 18.7021 17.9874 19.7352 17.961C20.3873 17.9444 21.021 17.969 21.6356 18.0293C21.4865 15.9162 21.2971 13.798 21.1233 11.6749C21.0486 11.6722 20.9739 11.6693 20.9008 11.6687L20.9007 11.6688ZM22.1882 11.7547C22.3641 13.8893 22.5563 16.029 22.7052 18.1738C24.9205 18.5573 26.8509 19.4238 28.4248 20.5754C28.7745 19.1382 29.1081 17.6971 29.4254 16.2525C28.8758 16.4207 28.3192 16.7064 28.0168 17.1909L27.2036 18.4934L27.0449 16.9662C26.8174 14.7746 26.1476 13.5453 25.1818 12.7972C24.4139 12.2025 23.4043 11.8948 22.1882 11.7546L22.1882 11.7547ZM20.2522 19.0061C20.1807 19.0057 20.1093 19.0057 20.0378 19.0063C18.9591 19.0155 17.82 19.1449 16.6265 19.4134C17.0423 22.7791 17.7097 26.1452 18.4203 29.5304C19.6473 29.5984 20.6474 29.7028 21.6323 29.9596C22.0124 26.3504 21.9376 22.7274 21.7078 19.0896C21.2243 19.0367 20.7385 19.0088 20.2522 19.006L20.2522 19.0061ZM22.7765 19.2511C23.002 22.915 23.0665 26.5934 22.6589 30.2856C23.4373 30.5777 24.2532 30.9852 25.2087 31.5634L25.3652 31.6581L25.4295 31.8293C26.1843 33.8415 26.9462 35.8811 27.2944 37.9611C31.3329 37.8966 36.0598 38.1575 38.8568 37.7286C36.5131 34.644 32.9251 33.9658 30.2428 33.5877C29.6573 33.5762 29.1486 33.6173 28.3683 33.6812C28.7432 33.2778 29.0123 33.0285 29.3353 32.8943L26.1181 29.179L26.1993 28.9026C26.8846 26.573 27.5427 24.1288 28.15 21.6922C26.701 20.5462 24.893 19.6587 22.7764 19.2511L22.7765 19.2511ZM14.0728 26.4051L13.5523 27.9668C13.5258 27.977 13.4998 27.9879 13.474 27.9997L12.0012 27.2633L12.7378 28.7361C12.726 28.7618 12.715 28.7879 12.7048 28.8144L11.1432 29.3347L12.7048 29.8554C12.715 29.8819 12.726 29.9078 12.7376 29.9335L12.0012 31.4064L13.474 30.6701C13.4998 30.6818 13.5258 30.6927 13.5523 30.7029L14.0728 32.2645L14.5934 30.7029C14.6198 30.6927 14.6459 30.6818 14.6716 30.6701L16.1443 31.4065L15.4082 29.9336C15.4125 29.9239 15.4163 29.9138 15.4205 29.904C16.4217 30.2255 17.1941 30.4055 18.2498 30.5797C18.259 30.019 18.3938 29.7342 18.4124 29.5328C17.5153 29.4278 16.7098 29.1612 15.8319 28.9353L15.4408 28.8143C15.4307 28.788 15.4197 28.7618 15.4081 28.7361L16.1443 27.2633L14.6715 27.9997C14.6457 27.9879 14.6197 27.977 14.5933 27.9668L14.0728 26.4051ZM14.0728 28.669C14.4452 28.669 14.7386 28.9624 14.7386 29.3348C14.7386 29.7074 14.4452 30.0008 14.0728 30.0008C13.7003 30.0008 13.407 29.7074 13.407 29.3349C13.407 28.9625 13.7003 28.6691 14.0728 28.6691V28.669ZM18.2558 30.5774C17.5531 31.7184 17.169 33.5648 16.8279 34.7678C18.8292 35.1436 21.0976 34.8967 22.7362 35.4649C23.886 35.8483 24.9989 36.5163 26.0951 37.3193C25.7358 35.6959 25.1324 34.0454 24.5071 32.3763C22.0709 30.9252 20.815 30.7104 18.2559 30.5774H18.2558ZM16.9105 35.8345C17.2252 36.683 17.79 37.4596 18.6332 38.2571C19.2767 38.3709 20.0828 38.3339 20.807 38.2803C20.9591 37.6242 21.2197 36.9449 21.636 36.3101C20.0455 36.0673 18.4999 35.9781 16.9104 35.8345H16.9105Z" fill="#F4F9FD"/>
</svg>
